--40001LOG 11:50:53:412814100 Waiting for file /home/seluser/videos/vid_chrome_or_firefox_40001* to be created...
Won't start video recording due to VIDEO env var false
ffmpeg version 2.8.15-0ubuntu0.16.04.1 Copyright (c) 2000-2018 the FFmpeg developers
  built with gcc 5.4.0 (Ubuntu 5.4.0-6ubuntu1~16.04.10) 20160609
  configuration: --prefix=/usr --extra-version=0ubuntu0.16.04.1 --build-suffix=-ffmpeg --toolchain=hardened --libdir=/usr/lib/x86_64-linux-gnu --incdir=/usr/include/x86_64-linux-gnu --cc=cc --cxx=g++ --enable-gpl --enable-shared --disable-stripping --disable-decoder=libopenjpeg --disable-decoder=libschroedinger --enable-avresample --enable-avisynth --enable-gnutls --enable-ladspa --enable-libass --enable-libbluray --enable-libbs2b --enable-libcaca --enable-libcdio --enable-libflite --enable-libfontconfig --enable-libfreetype --enable-libfribidi --enable-libgme --enable-libgsm --enable-libmodplug --enable-libmp3lame --enable-libopenjpeg --enable-libopus --enable-libpulse --enable-librtmp --enable-libschroedinger --enable-libshine --enable-libsnappy --enable-libsoxr --enable-libspeex --enable-libssh --enable-libtheora --enable-libtwolame --enable-libvorbis --enable-libvpx --enable-libwavpack --enable-libwebp --enable-libx265 --enable-libxvid --enable-libzvbi --enable-openal --enable-opengl --enable-x11grab --enable-libdc1394 --enable-libiec61883 --enable-libzmq --enable-frei0r --enable-libx264 --enable-libopencv
  libavutil      54. 31.100 / 54. 31.100
  libavcodec     56. 60.100 / 56. 60.100
  libavformat    56. 40.101 / 56. 40.101
  libavdevice    56.  4.100 / 56.  4.100
  libavfilter     5. 40.101 /  5. 40.101
  libavresample   2.  1.  0 /  2.  1.  0
  libswscale      3.  1.101 /  3.  1.101
  libswresample   1.  2.101 /  1.  2.101
  libpostproc    53.  3.100 / 53.  3.100
Input #0, x11grab, from ':91.0':
  Duration: N/A, start: 1556013057.758732, bitrate: N/A
    Stream #0:0: Video: rawvideo (BGR[0] / 0x524742), bgr0, 1920x1080, 29.97 fps, 29.97 tbr, 1000k tbn, 29.97 tbc
[libx264 @ 0x197b160] using cpu capabilities: MMX2 SSE2Fast SSSE3 SSE4.2 AVX FMA3 AVX2 LZCNT BMI2
[libx264 @ 0x197b160] profile Constrained Baseline, level 4.0
[libx264 @ 0x197b160] 264 - core 148 r2643 5c65704 - H.264/MPEG-4 AVC codec - Copyleft 2003-2015 - http://www.videolan.org/x264.html - options: cabac=0 ref=1 deblock=0:0:0 analyse=0:0 me=dia subme=0 psy=1 psy_rd=1.00:0.00 mixed_ref=0 me_range=16 chroma_me=1 trellis=0 8x8dct=0 cqm=0 deadzone=21,11 fast_pskip=1 chroma_qp_offset=0 threads=3 lookahead_threads=1 sliced_threads=0 nr=0 decimate=1 interlaced=0 bluray_compat=0 constrained_intra=0 bframes=0 weightp=0 keyint=250 keyint_min=10 scenecut=0 intra_refresh=0 rc=crf mbtree=0 crf=23.0 qcomp=0.60 qpmin=0 qpmax=69 qpstep=4 ip_ratio=1.40 aq=0
Output #0, matroska, to '/home/seluser/videos/vid_chrome_or_firefox_40001.mkv':
  Metadata:
    encoder         : Lavf56.40.101
    Stream #0:0: Video: h264 (libx264) (H264 / 0x34363248), yuv420p, 1920x1080, q=-1--1, 10 fps, 1k tbn, 10 tbc
    Metadata:
      encoder         : Lavc56.60.100 libx264
Stream mapping:
  Stream #0:0 -> #0:0 (rawvideo (native) -> h264 (libx264))
Press [q] to stop, [?] for help
frame=    4 fps=0.0 q=0.0 size=       1kB time=00:00:00.00 bitrate=N/A    
frame=    7 fps=5.7 q=7.0 size=      69kB time=00:00:00.90 bitrate= 627.1kbits/s    
frame=   12 fps=6.8 q=9.0 size=      75kB time=00:00:01.90 bitrate= 323.6kbits/s    
frame=   17 fps=7.2 q=9.0 size=      75kB time=00:00:02.40 bitrate= 257.0kbits/s    
frame=   23 fps=7.7 q=9.0 size=      75kB time=00:00:03.10 bitrate= 199.2kbits/s    
frame=   28 fps=7.9 q=9.0 size=      76kB time=00:00:03.60 bitrate= 172.5kbits/s    
frame=   30 fps=7.4 q=8.0 size=      76kB time=00:00:03.80 bitrate= 163.5kbits/s    
frame=   35 fps=7.6 q=9.0 size=      76kB time=00:00:04.70 bitrate= 133.0kbits/s    
frame=   41 fps=7.7 q=10.0 size=      76kB time=00:00:05.30 bitrate= 118.1kbits/s    
frame=   47 fps=8.0 q=9.0 size=      82kB time=00:00:06.00 bitrate= 112.2kbits/s    
frame=   52 fps=8.0 q=8.0 size=      82kB time=00:00:06.50 bitrate= 103.7kbits/s    
frame=   58 fps=8.2 q=9.0 size=      83kB time=00:00:07.20 bitrate=  94.6kbits/s dup=0 drop=2    
frame=   63 fps=8.3 q=9.0 size=      83kB time=00:00:07.70 bitrate=  88.7kbits/s dup=0 drop=3    
frame=   68 fps=8.4 q=10.0 size=      83kB time=00:00:08.20 bitrate=  83.4kbits/s dup=0 drop=6    
frame=   74 fps=8.6 q=9.0 size=      87kB time=00:00:08.80 bitrate=  80.8kbits/s dup=0 drop=6    
frame=   78 fps=8.5 q=8.0 size=      87kB time=00:00:09.20 bitrate=  77.6kbits/s dup=0 drop=7    
frame=   82 fps=8.4 q=8.0 size=      88kB time=00:00:09.70 bitrate=  74.2kbits/s dup=0 drop=7    
frame=   85 fps=8.2 q=11.0 size=      88kB time=00:00:10.10 bitrate=  71.5kbits/s dup=0 drop=7    
frame=   89 fps=8.1 q=9.0 size=     131kB time=00:00:10.90 bitrate=  98.1kbits/s dup=0 drop=8    
frame=   91 fps=7.8 q=8.0 size=     131kB time=00:00:11.10 bitrate=  96.4kbits/s dup=0 drop=8    
frame=   93 fps=7.4 q=6.0 size=     141kB time=00:00:11.40 bitrate= 101.4kbits/s dup=0 drop=8    
frame=   95 fps=7.2 q=5.0 size=     146kB time=00:00:12.20 bitrate=  97.7kbits/s dup=0 drop=8    
frame=   98 fps=7.2 q=8.0 size=     150kB time=00:00:13.40 bitrate=  91.8kbits/s dup=0 drop=8    
--40001LOG 11:51:12:505769400 Trapped SIGTERM or SIGINT so shutting down ffmpeg gracefully...
frame=  100 fps=7.0 q=7.0 size=     150kB time=00:00:13.90 bitrate=  88.6kbits/s dup=0 drop=8    
frame=  100 fps=6.9 q=-1.0 Lsize=     151kB time=00:00:14.70 bitrate=  83.9kbits/s dup=0 drop=8    
video:149kB audio:0kB subtitle:0kB other streams:0kB global headers:0kB muxing overhead: 0.918338%
--40001LOG 11:51:12:616505600 Will kill VID_TOOL_PID=1045 ...
[libx264 @ 0x197b160] frame I:1     Avg QP:20.00  size: 30708
[libx264 @ 0x197b160] frame P:99    Avg QP: 8.62  size:  1227
[libx264 @ 0x197b160] mb I  I16..4: 100.0%  0.0%  0.0%
[libx264 @ 0x197b160] mb P  I16..4:  2.1%  0.0%  0.0%  P16..4:  0.5%  0.0%  0.0%  0.0%  0.0%    skip:97.4%
[libx264 @ 0x197b160] coded y,uvDC,uvAC intra: 5.3% 3.6% 3.4% inter: 0.2% 0.2% 0.2%
[libx264 @ 0x197b160] i16 v,h,dc,p: 88% 11%  1%  0%
[libx264 @ 0x197b160] i8c dc,h,v,p: 91%  7%  1%  0%
[libx264 @ 0x197b160] kb/s:81.71
Exiting normally, received signal 2.
--40001LOG 11:51:13:655830200 Tried to kill -SIGTERM VID_TOOL_PID=1045
--40001LOG 11:51:13:673498500 Waiting up to 6s for VID_TOOL_PID=1045 to end with SIGTERM...
--40001LOG 11:51:13:715730700 wait_pid successfully managed to SIGTERM:VID_TOOL_PID=1045 within less than 6s
--40001LOG 11:51:13:732341300 Will try to fix the videos...
--40001LOG 11:51:14:274489500 Fixing perms for /home/seluser/videos/vid_chrome_or_firefox_40001.mkv*
--40001LOG 11:51:14:372478400 Changing video encoding from mkv to mp4...
--40001LOG 11:51:23:882574900 Conversion from mkv to mp4 succeeded!
--40001LOG 11:51:23:900578000 Cleaning up /home/seluser/videos/vid_chrome_or_firefox_40001.mkv ...
--40001LOG 11:51:23:930500500 Optimizing /home/seluser/videos/vid_chrome_or_firefox_40001.mp4 for HTTP streaming...
--40001LOG 11:51:24:263450600 Succeeded to mp4box_retry.sh within 8s
--40001LOG 11:51:24:278961700 ffmpeg shutdown complete.
